REM DIRINDEX 1\8,1\2\11,1\3\12,1\3\14,1\5\15,1\5\16,1\6\17,1\6\18,1\4\19,1\4\20,1\4\21,1\4\22,1\7\23,1\7\24,1\7\25,1\2\9\26,1\2\9\27,1\2\10\28,1\2\10\29,1\2\10\30,1\2\10\31,1\2\10\32,1\3\13\33,1\3\13\34,1\3\13\35
REM DIRNAME folder01,folder02,folder03,folder04,folder05,folder06,folder07,folder08,folder09,folder10,folder11,folder12,folder13,folder14,folder15,folder16,folder17,folder18,folder19,folder20,folder21,folder22,folder23,folder24,folder25,folder26,folder27,folder28,folder29,folder30,folder31,folder32,folder33,folder34,folder35
TITLE ""
FILE "150 150_例文UNIT5_SET4.mp3" MP3
  TRACK 01 AUDIO
    TITLE "22:cjc123_3877"
    INDEX 01 00:00:00
  TRACK 02 AUDIO
    TITLE "0:"
    INDEX 01 00:02:51
  TRACK 03 AUDIO
    TITLE "19:cjc123_3878"
    INDEX 01 00:03:21
  TRACK 04 AUDIO
    TITLE "0:"
    INDEX 01 00:08:52
  TRACK 05 AUDIO
    TITLE "20:cjc123_3879"
    INDEX 01 00:09:08
  TRACK 06 AUDIO
    TITLE "0:"
    INDEX 01 00:14:49
  TRACK 07 AUDIO
    TITLE "21:cjc123_3880"
    INDEX 01 00:15:05
  TRACK 08 AUDIO
    TITLE "0:"
    INDEX 01 00:20:37
  TRACK 09 AUDIO
    TITLE "19:cjc123_3881"
    INDEX 01 00:21:09
  TRACK 10 AUDIO
    TITLE "0:"
    INDEX 01 00:27:34
  TRACK 11 AUDIO
    TITLE "20:cjc123_3882"
    INDEX 01 00:27:73
  TRACK 12 AUDIO
    TITLE "0:"
    INDEX 01 00:33:44
  TRACK 13 AUDIO
    TITLE "21:cjc123_3883"
    INDEX 01 00:33:69
  TRACK 14 AUDIO
    TITLE "0:"
    INDEX 01 00:40:21
  TRACK 15 AUDIO
    TITLE "19:cjc123_3884"
    INDEX 01 00:41:06
  TRACK 16 AUDIO
    TITLE "0:"
    INDEX 01 00:45:08
  TRACK 17 AUDIO
    TITLE "20:cjc123_3885"
    INDEX 01 00:45:41
  TRACK 18 AUDIO
    TITLE "0:"
    INDEX 01 00:49:29
  TRACK 19 AUDIO
    TITLE "21:cjc123_3886"
    INDEX 01 00:49:61
  TRACK 20 AUDIO
    TITLE "0:"
    INDEX 01 00:53:64
  TRACK 21 AUDIO
    TITLE "19:cjc123_3887"
    INDEX 01 00:54:36
  TRACK 22 AUDIO
    TITLE "0:"
    INDEX 01 00:58:34
  TRACK 23 AUDIO
    TITLE "20:cjc123_3888"
    INDEX 01 00:58:67
  TRACK 24 AUDIO
    TITLE "0:"
    INDEX 01 01:03:43
  TRACK 25 AUDIO
    TITLE "21:cjc123_3889"
    INDEX 01 01:03:67
  TRACK 26 AUDIO
    TITLE "0:"
    INDEX 01 01:07:64
  TRACK 27 AUDIO
    TITLE "19:cjc123_3890"
    INDEX 01 01:08:35
  TRACK 28 AUDIO
    TITLE "0:"
    INDEX 01 01:14:08
  TRACK 29 AUDIO
    TITLE "20:cjc123_3891"
    INDEX 01 01:14:39
  TRACK 30 AUDIO
    TITLE "0:"
    INDEX 01 01:19:21
  TRACK 31 AUDIO
    TITLE "21:cjc123_3892"
    INDEX 01 01:19:48
  TRACK 32 AUDIO
    TITLE "0:"
    INDEX 01 01:25:25
  TRACK 33 AUDIO
    TITLE "19:cjc123_3893"
    INDEX 01 01:25:72
  TRACK 34 AUDIO
    TITLE "0:"
    INDEX 01 01:30:42
  TRACK 35 AUDIO
    TITLE "20:cjc123_3894"
    INDEX 01 01:30:71
  TRACK 36 AUDIO
    TITLE "0:"
    INDEX 01 01:35:45
  TRACK 37 AUDIO
    TITLE "21:cjc123_3895"
    INDEX 01 01:36:01
  TRACK 38 AUDIO
    TITLE "0:"
    INDEX 01 01:40:31
  TRACK 39 AUDIO
    TITLE "19:cjc123_3896"
    INDEX 01 01:41:16
  TRACK 40 AUDIO
    TITLE "0:"
    INDEX 01 01:46:35
  TRACK 41 AUDIO
    TITLE "20:cjc123_3897"
    INDEX 01 01:46:72
  TRACK 42 AUDIO
    TITLE "0:"
    INDEX 01 01:52:34
  TRACK 43 AUDIO
    TITLE "21:cjc123_3898"
    INDEX 01 01:52:65
  TRACK 44 AUDIO
    TITLE "0:"
    INDEX 01 01:58:09
  TRACK 45 AUDIO
    TITLE "19:cjc123_3899"
    INDEX 01 01:58:74
  TRACK 46 AUDIO
    TITLE "0:"
    INDEX 01 02:03:22
  TRACK 47 AUDIO
    TITLE "20:cjc123_3900"
    INDEX 01 02:03:53
  TRACK 48 AUDIO
    TITLE "0:"
    INDEX 01 02:07:53
  TRACK 49 AUDIO
    TITLE "21:cjc123_3901"
    INDEX 01 02:08:50
  TRACK 50 AUDIO
    TITLE "0:"
    INDEX 01 02:12:74
  TRACK 51 AUDIO
    TITLE "19:cjc123_3902"
    INDEX 01 02:13:46
  TRACK 52 AUDIO
    TITLE "0:"
    INDEX 01 02:19:37
  TRACK 53 AUDIO
    TITLE "20:cjc123_3903"
    INDEX 01 02:19:66
  TRACK 54 AUDIO
    TITLE "0:"
    INDEX 01 02:25:14
  TRACK 55 AUDIO
    TITLE "21:cjc123_3904"
    INDEX 01 02:25:41
  TRACK 56 AUDIO
    TITLE "0:"
    INDEX 01 02:31:30
  TRACK 57 AUDIO
    TITLE "19:cjc123_3905"
    INDEX 01 02:31:73
  TRACK 58 AUDIO
    TITLE "0:"
    INDEX 01 02:36:39
  TRACK 59 AUDIO
    TITLE "20:cjc123_3906"
    INDEX 01 02:37:15
  TRACK 60 AUDIO
    TITLE "0:"
    INDEX 01 02:41:56
  TRACK 61 AUDIO
    TITLE "21:cjc123_3907"
    INDEX 01 02:42:08
  TRACK 62 AUDIO
    TITLE "0:"
    INDEX 01 02:46:49
  TRACK 63 AUDIO
    TITLE "19:cjc123_3908"
    INDEX 01 02:47:37
  TRACK 64 AUDIO
    TITLE "0:"
    INDEX 01 02:52:38
  TRACK 65 AUDIO
    TITLE "20:cjc123_3909"
    INDEX 01 02:53:10
  TRACK 66 AUDIO
    TITLE "0:"
    INDEX 01 02:58:41
  TRACK 67 AUDIO
    TITLE "21:cjc123_3910"
    INDEX 01 02:58:66
  TRACK 68 AUDIO
    TITLE "0:"
    INDEX 01 03:03:69
  TRACK 69 AUDIO
    TITLE "19:cjc123_3911"
    INDEX 01 03:04:57
  TRACK 70 AUDIO
    TITLE "0:"
    INDEX 01 03:10:26
  TRACK 71 AUDIO
    TITLE "20:cjc123_3912"
    INDEX 01 03:10:54
  TRACK 72 AUDIO
    TITLE "0:"
    INDEX 01 03:17:18
  TRACK 73 AUDIO
    TITLE "21:cjc123_3913"
    INDEX 01 03:17:46
  TRACK 74 AUDIO
    TITLE "0:"
    INDEX 01 03:23:15
  TRACK 75 AUDIO
    TITLE "19:cjc123_3914"
    INDEX 01 03:23:64
  TRACK 76 AUDIO
    TITLE "0:"
    INDEX 01 03:28:55
  TRACK 77 AUDIO
    TITLE "20:cjc123_3915"
    INDEX 01 03:29:12
  TRACK 78 AUDIO
    TITLE "0:"
    INDEX 01 03:34:44
  TRACK 79 AUDIO
    TITLE "21:cjc123_3916"
    INDEX 01 03:34:70
  TRACK 80 AUDIO
    TITLE "0:"
    INDEX 01 03:39:61
  TRACK 81 AUDIO
    TITLE "19:cjc123_3917"
    INDEX 01 03:40:39
  TRACK 82 AUDIO
    TITLE "0:"
    INDEX 01 03:45:64
  TRACK 83 AUDIO
    TITLE "20:cjc123_3918"
    INDEX 01 03:46:30
  TRACK 84 AUDIO
    TITLE "0:"
    INDEX 01 03:51:35
  TRACK 85 AUDIO
    TITLE "21:cjc123_3919"
    INDEX 01 03:51:66
  TRACK 86 AUDIO
    TITLE "0:"
    INDEX 01 03:57:16
  TRACK 87 AUDIO
    TITLE "19:cjc123_3920"
    INDEX 01 03:58:06
  TRACK 88 AUDIO
    TITLE "0:"
    INDEX 01 04:03:42
  TRACK 89 AUDIO
    TITLE "20:cjc123_3921"
    INDEX 01 04:04:02
  TRACK 90 AUDIO
    TITLE "0:"
    INDEX 01 04:09:39
  TRACK 91 AUDIO
    TITLE "21:cjc123_3922"
    INDEX 01 04:09:68
  TRACK 92 AUDIO
    TITLE "0:"
    INDEX 01 04:15:29
